<?xml version="1.0" encoding="UTF-8" standalone="no"?>
<!-- Created with Inkscape (http://www.inkscape.org/) -->

<svg
   width="21.421528mm"
   height="18.318237mm"
   viewBox="0 0 21.421528 18.318237"
   version="1.1"
   id="svg1"
   xmlns:inkscape="http://www.inkscape.org/namespaces/inkscape"
   xmlns:sodipodi="http://sodipodi.sourceforge.net/DTD/sodipodi-0.dtd"
   xmlns="http://www.w3.org/2000/svg"
   xmlns:svg="http://www.w3.org/2000/svg">
  <sodipodi:namedview
     id="namedview1"
     pagecolor="#ffffff"
     bordercolor="#111111"
     borderopacity="1"
     inkscape:showpageshadow="0"
     inkscape:pageopacity="0"
     inkscape:pagecheckerboard="1"
     inkscape:deskcolor="#d1d1d1"
     inkscape:document-units="mm" />
  <defs
     id="defs1" />
  <g
     inkscape:label="Layer 1"
     inkscape:groupmode="layer"
     id="layer1"
     transform="translate(-88.75934,-3.3379158)">
    <path
       sodipodi:type="star"
       style="fill:#388000;fill-opacity:1;stroke-width:1.4211;stroke-linecap:round;stroke-linejoin:round;stroke-miterlimit:24.2"
       id="path127"
       inkscape:flatsided="true"
       sodipodi:sides="6"
       sodipodi:cx="416.74408"
       sodipodi:cy="172.55067"
       sodipodi:r1="36.68095"
       sodipodi:r2="31.766636"
       sodipodi:arg1="0"
       sodipodi:arg2="0.52359878"
       inkscape:rounded="0"
       inkscape:randomized="0"
       d="m 453.42503,172.55067 -18.34048,31.76664 -36.68095,0 -18.34047,-31.76664 18.34047,-31.76663 36.68095,0 z"
       transform="matrix(0.29199797,0,0,0.28832511,-22.218318,-37.253658)"
       inkscape:export-filename="marsh.svg"
       inkscape:export-xdpi="96"
       inkscape:export-ydpi="96" />
    <path
       style="fill:#008000;fill-opacity:1;stroke-width:0.375999;stroke-linecap:round;stroke-linejoin:round;stroke-miterlimit:24.2"
       d="m 102.3004,19.245069 c -0.21121,-0.541985 -0.26606,-1.106379 -0.26606,-1.685052 0,-0.08869 -0.0237,-0.180609 0,-0.266061 0.0514,-0.185144 0.13579,-0.360253 0.22172,-0.532121 0.0187,-0.03739 0.0615,-0.05695 0.0887,-0.08869 0.18701,-0.218177 0.39909,-0.397785 0.39909,-0.709496 0,-0.06094 -0.0376,-0.116802 -0.0443,-0.177374 -0.008,-0.07345 0.0145,-0.149247 0,-0.221717 -0.0249,-0.124451 -0.22559,-0.439563 -0.0887,-0.576465 0.0209,-0.02091 -0.006,0.0597 0,0.08869 0.0331,0.165258 0.11626,0.320083 0.13303,0.487778 0.0216,0.216283 -0.0142,0.409971 -0.0443,0.620809 -0.0679,0.475451 -0.31371,0.876244 -0.44344,1.330304 -0.008,0.02842 0.009,0.06064 0,0.08869 -0.007,0.01983 -0.0393,0.02406 -0.0443,0.04434 -0.0179,0.0717 0.0179,0.150018 0,0.221718 -0.12268,0.490715 0.0887,0.882588 0.0887,1.374647 z"
       id="path1" />
    <path
       style="fill:#008000;fill-opacity:1;stroke-width:0.375999;stroke-linecap:round;stroke-linejoin:round;stroke-miterlimit:24.2"
       d="m 95.560196,13.835165 c -0.25128,-0.960775 -0.618146,-1.898548 -0.75384,-2.882326 -0.168571,-1.2221433 0.838512,-1.4088547 1.640708,-1.9067696 0.286626,-0.177905 0.289753,-1.1997007 0.266062,-1.5076781 -0.01479,-0.088687 -0.02956,-0.177374 -0.04434,-0.266061 -0.01479,0 -0.03389,0.010451 -0.04434,0 -0.01045,-0.010451 0.01479,-0.044343 0,-0.044343 -0.01966,0 0.0172,0.750584 0,0.9312129 -0.04647,0.487974 -0.141632,0.9992133 -0.310404,1.463335 -0.187272,0.5150018 -0.449609,0.9713428 -0.532122,1.5076778 -0.02909,0.189104 0.02326,0.297874 0.04434,0.487778 0.0098,0.08815 -0.01738,0.179096 0,0.266061 0.02111,0.105519 0.06758,0.204886 0.08869,0.310405 0.03016,0.150792 0,0.332215 0,0.487778 0,0.339966 0,0.679933 0,1.0199 0,0.113512 0.0416,0.310404 -0.13303,0.310404"
       id="path2" />
    <path
       style="fill:#008000;fill-opacity:1;stroke-width:0.375999;stroke-linecap:round;stroke-linejoin:round;stroke-miterlimit:24.2"
       d="m 102.83253,13.436074 c -0.19216,-0.990338 -0.47147,-1.967685 -0.57647,-2.971013 -0.0888,-0.8487256 0.44901,-0.9853065 0.79818,-1.5963654 0.022,-0.038501 -0.005,-0.088958 0,-0.1330303 0.01,-0.08936 0.0503,-0.1763499 0.0444,-0.2660611 -0.10152,-0.4568079 -0.0887,-0.2628156 -0.0887,-0.5764651 0,-0.1045938 -0.0795,-0.2048846 -0.0443,-0.3104044 0.0148,-0.044343 0.0394,-0.1795156 0.0443,-0.1330304 0.0311,0.2954652 0.0494,0.592378 0.0887,0.8868695 0.0199,0.1494166 0.0639,0.2947469 0.0887,0.4434348 0.0344,0.206193 0.0628,0.4133858 0.0887,0.6208088 0.0184,0.1474015 0.0296,0.2956232 0.0443,0.4434348 0.0946,0.9462668 0.0887,1.8888548 0.0887,2.8379828 0,0.0649 0.0906,0.783006 0.0443,0.842526 -0.0886,0.113932 -0.56571,0.443435 -0.75383,0.443435"
       id="path3" />
    <path
       style="fill:#008000;fill-opacity:1;stroke-width:0.375999;stroke-linecap:round;stroke-linejoin:round;stroke-miterlimit:24.2"
       d="M 96.979186,19.289413 C 96.448474,17.13118 95.796641,16.95505 96.8905,15.387187 c 0.197443,-0.283001 0.470837,-0.512053 0.753838,-0.709496 0.35797,-0.249747 0.755573,-0.440191 1.152932,-0.620808 0.09597,-0.224277 0.274815,0.0054 0.39909,-0.04434 0.04948,-0.01979 0.08536,-0.06485 0.13303,-0.08869 0.01323,-0.0066 0.03614,0.0123 0.04434,0 0.198189,-0.297283 0.08151,-0.770594 -0.04434,-1.064243 -0.05558,-0.129689 -0.06204,-0.221527 -0.08869,-0.354748 -0.0065,-0.03241 -0.02956,-0.11825 -0.04434,-0.08869 -0.02643,0.05288 -0.01434,0.120014 0,0.177374 0.0601,0.240379 0.150013,0.47232 0.221718,0.709495 0.120457,0.398431 0.226621,0.801244 0.354748,1.197274 0.216482,0.669125 0.711484,1.341559 0.576464,2.084144 -0.0258,0.141825 -0.449525,0.40589 -0.53212,0.443434 -0.06861,0.03119 -0.149527,0.02269 -0.221718,0.04434 -0.256625,0.07699 -1.088776,0.423624 -1.285962,0.620809 -0.255633,0.255632 -0.638009,0.699555 -0.798182,1.0199 -0.01984,0.03966 0.01402,0.09096 0,0.13303 -0.119317,0.357947 -0.108395,0.16752 -0.26606,0.443435 -0.02942,0.05149 -0.100253,0.321969 -0.133032,0.354748 -0.02336,0.02337 -0.06531,0.02097 -0.08869,0.04434"
       id="path4" />
    <path
       style="fill:#008000;fill-opacity:1;stroke-width:0.375999;stroke-linecap:round;stroke-linejoin:round;stroke-miterlimit:24.2"
       d="M 99.462422,10.287687 C 99.048548,9.6668782 98.570363,9.0844289 98.220804,8.4252609 98.047679,8.098796 97.988492,7.7222002 97.9104,7.3610173 97.729568,6.5246691 98.065242,5.8498395 98.353834,5.0995 c 0.05624,-0.1462236 0.07205,-0.3547478 0.266062,-0.3547478 0.221774,0 0.604822,-0.00937 0.798182,0.044343 0.114821,0.031895 0.202202,0.127435 0.310404,0.177374 0.102208,0.047173 0.260061,0.032345 0.310408,0.1330304 0.13176,0.2635276 -0.04142,0.3861273 -0.177378,0.5764652 -0.112017,0.1568248 -0.2094,0.3236444 -0.310404,0.4877781 -0.181729,0.2953097 -0.32349,0.5873713 -0.354748,0.9312132 -0.04841,0.5324859 0.140173,1.0484715 0.266062,1.5520217 0.0218,0.087226 0.02069,0.1793188 0.04434,0.2660608 0.02096,0.076794 0.06938,0.1444951 0.08869,0.2217174 0.01074,0.04302 -0.0087,0.089548 0,0.1330304 0.0034,0.017137 0.08526,0.1158938 0.08869,0.1330306 0.02146,0.1072804 -0.0049,0.2118723 0.04434,0.3104042 0.01871,0.037394 0.07547,0.049025 0.08869,0.088687 0.03181,0.09543 0.09533,0.7915428 0,0.8868698 -0.104981,0.104981 -0.391943,0.04434 -0.532122,0.04434"
       id="path5" />
    <path
       style="fill:#008000;fill-opacity:1;stroke-width:0.375999;stroke-linecap:round;stroke-linejoin:round;stroke-miterlimit:24.2"
       d="m 92.589182,15.653248 c 0,-1.064244 -0.02066,-2.128688 0,-3.192731 0.0089,-0.459082 0.02244,-0.920285 0.08869,-1.374647 0.102854,-0.705276 0.495086,-1.3042288 0.75384,-1.9511136 0.01736,-0.043399 0.02956,-0.088687 0.04434,-0.1330304 0.04434,-0.059125 0.103013,-0.1098378 0.13303,-0.177374 0.07132,-0.1604698 0.0718,-0.3632314 0.08869,-0.5321215 0.0089,-0.089464 0.03163,-0.1770544 0.04434,-0.2660611 0.0042,-0.029265 0.02405,-0.1058695 0,-0.088687 -0.807014,0.5764395 -0.03291,0.014483 -0.39909,0.4434348 -0.475795,0.5573596 -0.985358,1.0852206 -1.463336,1.6407088 -0.0093,0.01078 -0.297122,0.439076 -0.310404,0.487778 -0.02334,0.08556 0.008,0.177738 0,0.266061 -0.05398,0.593759 -0.04875,-0.226697 -0.08869,0.532122 -0.02911,0.553032 -0.05918,1.334334 0.08869,1.862426 0.105244,0.375874 0.275979,0.739247 0.399092,1.108587 0.143407,0.430224 0.158324,0.899357 0.26606,1.330304 0.02281,0.09124 0.07313,0.427874 0.13303,0.487779"
       id="path6" />
    <path
       style="fill:#008000;fill-opacity:1;stroke-width:0.375999;stroke-linecap:round;stroke-linejoin:round;stroke-miterlimit:24.2"
       d="m 106.20263,15.121126 c -0.90934,-2.330182 -1.38529,-2.733297 -1.55202,-4.567378 -0.0161,-0.176646 -0.043,-0.360044 0,-0.532122 0.0786,-0.3144706 0.36843,-0.7779213 0.44343,-1.1529304 0.0147,-0.073478 0.0852,-0.7094958 0.0443,-0.7094958 -0.0148,0 -0.006,0.030888 0,0.044344 0.0684,0.1504458 0.14097,0.2992458 0.22171,0.4434347 0.33997,0.5912464 0.67994,1.1824928 1.0199,1.7737385 0.13303,0.266061 0.2554,0.537729 0.3991,0.798183 0.26385,0.478241 0.59127,0.907169 0.79818,1.418991 0.19215,0.517341 0.38431,1.034681 0.57646,1.552022 0,0.04434 -0.0108,0.09001 0,0.13303 0.0193,0.07722 0.0744,0.143403 0.0887,0.221718 0.0479,0.26338 0.14119,0.535683 0.0887,0.798182 -0.012,0.05976 -0.0343,0.117259 -0.0443,0.177374 -0.005,0.02916 0.0152,0.06334 0,0.08869 -0.0323,0.05377 -0.0929,0.08485 -0.13303,0.133031 -0.31262,0.375143 -0.83411,0.875402 -1.37464,0.798182 -0.32078,-0.04582 -0.80941,-0.727 -0.93122,-0.886869 -0.0226,-0.02967 -0.49091,-0.706367 -0.39909,-0.798183 0.0314,-0.03136 0.0919,-0.01647 0.13303,0 0.0388,0.01553 0.0591,0.05912 0.0887,0.08869 0.0591,0.02956 0.11466,0.06778 0.17737,0.08869 0.86992,0.289973 -0.13221,-0.12001 0.66515,0.221717"
       id="path7" />
  </g>
</svg>
