<?xml version="1.0" encoding="UTF-8" standalone="no"?>
<!-- Created with Inkscape (http://www.inkscape.org/) -->

<svg
   width="21.421528mm"
   height="18.318237mm"
   viewBox="0 0 21.421528 18.318237"
   version="1.1"
   id="svg1"
   sodipodi:docname="marsh.svg"
   xmlns:inkscape="http://www.inkscape.org/namespaces/inkscape"
   xmlns:sodipodi="http://sodipodi.sourceforge.net/DTD/sodipodi-0.dtd"
   xmlns="http://www.w3.org/2000/svg"
   xmlns:svg="http://www.w3.org/2000/svg">
  <sodipodi:namedview
     id="namedview1"
     pagecolor="#ffffff"
     bordercolor="#111111"
     borderopacity="1"
     inkscape:showpageshadow="0"
     inkscape:pageopacity="0"
     inkscape:pagecheckerboard="1"
     inkscape:deskcolor="#d1d1d1"
     inkscape:document-units="mm" />
  <defs
     id="defs1" />
  <g
     inkscape:label="Layer 1"
     inkscape:groupmode="layer"
     id="layer1"
     transform="translate(-88.75934,-3.3379158)">
    <path
       sodipodi:type="star"
       style="fill:#008080;stroke-width:1.4211;stroke-linecap:round;stroke-linejoin:round;stroke-miterlimit:24.2"
       id="path127"
       inkscape:flatsided="true"
       sodipodi:sides="6"
       sodipodi:cx="416.74408"
       sodipodi:cy="172.55067"
       sodipodi:r1="36.68095"
       sodipodi:r2="31.766636"
       sodipodi:arg1="0"
       sodipodi:arg2="0.52359878"
       inkscape:rounded="0"
       inkscape:randomized="0"
       d="m 453.42503,172.55067 -18.34048,31.76664 -36.68095,0 -18.34047,-31.76664 18.34047,-31.76663 36.68095,0 z"
       transform="matrix(0.23081918,0,0,0.26652703,1.0334862,-34.184835)" />
    <path
       style="fill:#008000;stroke-width:0.321412;stroke-linecap:round;stroke-linejoin:round;stroke-miterlimit:24.2"
       id="path145"
       d="m 93.470704,13.761285 c -0.01851,-0.384783 0.01136,-0.768517 0.03999,-1.151361 0,0 -2.57671,-0.07725 -2.57671,-0.07725 v 0 c -0.0568,0.149077 -0.104809,0.303174 -0.170406,0.447228 -0.104296,0.229044 -0.2417,0.438053 -0.405453,0.612501 z" />
    <path
       style="fill:#008000;stroke-width:0.321412;stroke-linecap:round;stroke-linejoin:round;stroke-miterlimit:24.2"
       id="path146"
       d="m 94.778507,10.16713 c 0.03961,-0.351458 0.219021,-0.6471564 0.352832,-0.9565184 0.120375,-0.2783053 0.139174,-0.3352338 0.249234,-0.6198933 0.125196,-0.3062193 0.19005,-0.6398047 0.2298,-0.9745738 0.01324,-0.1115138 0.01711,-0.2242898 0.02768,-0.3361925 0.0094,-0.09975 0.02154,-0.1991274 0.03231,-0.2986912 0,0 -2.802822,-0.0158 -2.802822,-0.0158 v 0 c 0.0028,0.094391 0.01113,0.1887865 0.0083,0.2831749 -0.01244,0.4175009 -0.112821,0.8175386 -0.241589,1.2041123 -0.03915,0.0987 -0.07497,0.1992938 -0.117435,0.2960985 -0.157987,0.3601543 -0.380069,0.7651036 -0.628912,1.048354 -0.04899,0.055769 -0.104908,0.1025522 -0.157363,0.1538287 z" />
    <path
       style="fill:#008000;stroke-width:0.321412;stroke-linecap:round;stroke-linejoin:round;stroke-miterlimit:24.2"
       id="path147"
       d="m 97.48188,16.494016 c -0.0013,-0.05554 -0.0089,-0.111408 -0.0036,-0.16661 0.0082,-0.08517 0.03429,-0.166989 0.04408,-0.25194 0.01621,-0.140599 0.02185,-0.28259 0.03379,-0.423771 0.01686,-0.199307 0.0408,-0.397876 0.05256,-0.597678 0.02137,-0.363132 0.05182,-1.545659 0.0605,-1.850541 0.07367,-0.945953 0.210822,-1.882369 0.341615,-2.819044 0,0 -2.134547,-0.0148 -2.134547,-0.0148 v 0 c 0.01073,0.276296 0.0309,0.55231 0.03216,0.828882 0.0043,0.958706 -0.02939,0.9944 -0.138583,1.968429 -0.08587,0.332934 -0.155145,0.672351 -0.257613,0.998802 -0.08616,0.2745 -0.196616,0.538025 -0.307111,0.800332 -0.193259,0.458772 -0.267694,0.579205 -0.509122,0.960895 -0.05038,0.07965 -0.09895,0.161415 -0.156263,0.234364 -0.04363,0.05554 -0.09685,0.09962 -0.145269,0.149436 z" />
    <path
       style="fill:#008000;stroke-width:0.321412;stroke-linecap:round;stroke-linejoin:round;stroke-miterlimit:24.2"
       id="path148"
       d="m 100.6462,11.693391 c -0.0378,-0.200658 -0.12589,-0.382547 -0.17055,-0.58031 -0.0421,-0.18626 -0.0779,-0.375527 -0.0952,-0.567115 -0.0189,-0.210354 -0.0138,-0.42285 -0.0126,-0.6343532 0.003,-0.6018874 0.0214,-0.6621692 0.0755,-1.2477969 0.0437,-0.4461264 0.15902,-0.8762279 0.2186,-1.3188424 0.0155,-0.1149697 0.0232,-0.2311771 0.0349,-0.3467657 0,0 -2.735119,-0.020692 -2.735119,-0.020692 v 0 c -7.9e-4,0.1147129 -0.0055,0.2294381 -0.0032,0.3441389 0.0071,0.4431525 0.05747,0.8834775 0.06695,1.3265296 -0.0016,0.5535484 0.0082,0.6880603 -0.03502,1.2500171 -0.01636,0.2128656 -0.03091,0.4266976 -0.06514,0.6366296 -0.06569,0.402551 -0.201447,0.770357 -0.303731,1.15857 z" />
    <path
       style="fill:#008000;stroke-width:0.321412;stroke-linecap:round;stroke-linejoin:round;stroke-miterlimit:24.2"
       id="path149"
       d="m 101.34899,17.969791 c -0.0982,-0.395232 -0.15958,-0.57361 -0.18013,-1.016512 -0.0102,-0.219511 0.004,-0.43999 0.0189,-0.659126 0.0243,-0.355414 0.10018,-0.888215 0.16348,-1.240356 0.0325,-0.180689 0.0738,-0.359035 0.11077,-0.538552 0.0417,-0.151573 0.0832,-0.303147 0.12487,-0.454721 0,0 -2.585007,-0.05632 -2.585007,-0.05632 v 0 c -0.0079,0.154787 -0.01549,0.309578 -0.02332,0.464366 -0.02964,0.408176 -0.05383,0.743278 -0.08464,1.153887 -0.03288,0.437749 -0.0547,0.878349 -0.139149,1.308629 -0.08623,0.439617 -0.167748,0.630499 -0.306904,1.020873 z" />
    <path
       style="fill:#008000;stroke-width:0.321412;stroke-linecap:round;stroke-linejoin:round;stroke-miterlimit:24.2"
       id="path150"
       d="m 96.377715,18.852709 c -0.06182,-0.09469 -0.141242,-0.213252 -0.180648,-0.309158 -0.277559,-0.675511 -0.364811,-1.42261 -0.380133,-2.165412 -0.006,-0.290615 0.01615,-0.581093 0.02422,-0.871637 0.0896,-1.051756 0.02807,-0.546534 0.177471,-1.516831 0,0 -2.292999,-0.01675 -2.292999,-0.01675 v 0 c 0.04541,0.978588 0.03324,0.469954 0.03096,1.526071 -0.0073,0.291813 -0.0044,0.584216 -0.02188,0.875443 -0.03156,0.527657 -0.101939,1.125446 -0.209511,1.642806 -0.241388,1.160926 -0.0534,0.08666 -0.244774,0.864909 -0.0079,0.03231 -0.0027,0.06716 -0.004,0.100739 z" />
    <path
       style="fill:#008000;stroke-width:0.321412;stroke-linecap:round;stroke-linejoin:round;stroke-miterlimit:24.2"
       id="path151"
       d="m 98.218606,8.8849947 c -0.01312,-0.1310338 -0.04229,-0.2612116 -0.03945,-0.393099 0.004,-0.1650183 0.03873,-0.3270306 0.05889,-0.4904029 0.02474,-0.1999566 0.03968,-0.4020262 0.07589,-0.5995786 0.03692,-0.2015977 0.09147,-0.3983159 0.143061,-0.5954646 0.136619,-0.522098 0.155931,-0.5492268 0.323964,-1.0357555 0,0 -2.542387,-0.083211 -2.542387,-0.083211 v 0 c -0.07163,0.4871351 -0.07163,0.5408254 -0.180861,1.0424887 -0.04342,0.1994208 -0.08357,0.4004413 -0.141391,0.5948019 -0.06013,0.202148 -0.13941,0.3958212 -0.211769,0.5924148 -0.06003,0.1630959 -0.111114,0.3317093 -0.185383,0.4865848 -0.06606,0.1377623 -0.155736,0.2581079 -0.233606,0.3871632 z" />
  </g>
</svg>
